<svg width="193" height="193" viewBox="0 0 193 193" fill="none" xmlns="http://www.w3.org/2000/svg">
<g transform="translate(16.5, 0)">
<path d="M75.64 40.29l49.14-10.04c21.16-4.32 39.87 12.95 34.19 31.56L124.72 174.13c-4.85 15.92-25.17 23.64-41.48 15.76L40.05 169.03c-12.03-5.81-17.78-18.35-13.74-29.97l28.3-81.42c3.02-8.7 11.04-15.31 21.03-17.35z" fill="#000"/>
<path d="M77.66 175.19c-5.48 0-10.94-1.22-15.98-3.66L17.93 150.4c-14.37-6.95-21.25-22.2-16.37-36.27l28.67-82.53c3.61-10.38 13.15-18.32 24.89-20.71L104.9.77c12.6-2.57 25.52 1.44 33.73 10.47 7.09 7.79 9.44 17.86 6.46 27.63l-34.7 113.77c-2.6 8.51-9.12 15.6-17.9 19.44-4.74 2.08-9.8 3.11-14.83 3.11zm-20.62-154.82c-8.42 1.72-15.21 7.25-17.71 14.44L10.66 117.29c-3.25 9.38 1.57 19.65 11.46 24.43l43.75 21.13c7.05 3.41 15.57 3.56 22.78.4 6.29-2.75 10.74-7.52 12.54-13.42l34.7-113.78c1.96-6.43.37-13.12-4.37-18.34-5.94-6.53-15.39-9.4-24.69-7.51L57.04 20.37z" fill="#000"/>
<defs>
<mask id="a" maskUnits="userSpaceOnUse" x="25" y="29" width="136" height="165">
<path d="M75.64 40.29l49.14-10.04c21.16-4.32 39.87 12.95 34.19 31.56L124.72 174.13c-4.85 15.92-25.17 23.64-41.48 15.76L40.05 169.03c-12.03-5.81-17.78-18.35-13.74-29.97l28.3-81.42c3.02-8.7 11.04-15.31 21.03-17.35z" fill="#fff"/>
</mask>
</defs>
<g mask="url(#a)">
<path d="M77.66 175.19c-5.48 0-10.94-1.22-15.98-3.66L17.93 150.4c-14.37-6.95-21.25-22.2-16.37-36.27l28.67-82.53c3.61-10.38 13.15-18.32 24.89-20.71L104.9.77c12.6-2.57 25.52 1.44 33.73 10.47 7.09 7.79 9.44 17.86 6.46 27.63l-34.7 113.77c-2.6 8.51-9.12 15.6-17.9 19.44-4.74 2.08-9.8 3.11-14.83 3.11zm-20.62-154.82c-8.42 1.72-15.21 7.25-17.71 14.44L10.66 117.29c-3.25 9.38 1.57 19.65 11.46 24.43l43.75 21.13c7.05 3.41 15.57 3.56 22.78.4 6.29-2.75 10.74-7.52 12.54-13.42l34.7-113.78c1.96-6.43.37-13.12-4.37-18.34-5.94-6.53-15.39-9.4-24.69-7.51L57.04 20.37z" fill="#fff"/>
</g>
</g>
</svg>
