<svg width="999" height="176" viewBox="0 0 999 176" fill="none" xmlns="http://www.w3.org/2000/svg">
<path d="M275.42 14.731H221.836L221 15.5671V160.386L221.836 161.222H245.906L246.743 160.386V121.877C246.743 112.88 251.764 107.856 260.766 107.856H275.416C308.488 107.856 324.188 86.7201 324.188 61.396C324.188 36.0718 308.492 14.731 275.42 14.731ZM273.957 82.7446H260.77C251.768 82.7446 246.747 77.933 246.747 68.9329V53.6579C246.747 44.6578 251.768 39.8461 260.77 39.8461H273.957C289.447 39.8461 296.769 49.2643 296.769 61.3999C296.769 73.5355 289.443 82.7446 273.957 82.7446Z" fill="black"/>
<path d="M589.594 111.413L588.758 112.249C585.409 126.901 573.062 138.619 553.596 138.619C527.431 138.619 510.059 117.692 510.059 87.9744C510.059 58.2566 527.431 37.3299 553.596 37.3299C573.062 37.3299 585.409 49.0474 588.758 63.6953L589.594 64.5314H615.968L616.804 63.6953C614.292 34.6125 589.176 11.5876 553.383 11.5876C511.313 11.5876 482.845 42.7726 482.845 88.1834C482.845 133.594 511.309 164.361 553.383 164.361C589.176 164.361 614.292 141.34 616.804 112.249L615.968 111.413H589.594Z" fill="black"/>
<path d="M704.505 99.4868C697.807 90.6957 698.017 85.466 704.505 76.4658L747.624 15.5671L746.788 14.731H718.951L680.857 67.4697C676.877 72.7033 672.901 75.0026 668.089 75.0026C662.227 75.0026 657.829 71.2361 657.829 63.7032V15.5671L656.992 14.731H632.922L632.086 15.5671V160.386L632.922 161.222H656.992L657.829 160.386V112.462C657.829 105.138 662.223 101.372 668.089 101.372C672.901 101.372 676.459 103.466 680.435 108.905L718.114 161.226H748.255L749.092 160.389L704.509 99.4907L704.505 99.4868Z" fill="black"/>
<path d="M855.415 136.11H805.176C796.178 136.11 791.362 131.295 791.362 122.508V15.5671L790.526 14.731H766.455L765.619 15.5671V160.386L766.455 161.222H855.415L856.251 160.386V136.947L855.415 136.11Z" fill="black"/>
<path d="M951.274 15.5671L950.438 14.731H907.946L907.11 15.5671L859.597 160.386L860.433 161.222H885.548L886.385 160.386L894.968 133.598C897.272 125.856 901.875 122.086 909.828 122.086H948.761C956.504 122.086 960.903 125.643 963.415 133.598L972.204 160.386L973.04 161.222H998.156L998.992 160.386L951.274 15.5671ZM937.882 99.2738H920.51C911.09 99.2738 906.068 93.8351 909.417 82.7407L918.21 54.281C920.301 47.1661 923.65 44.0267 928.884 44.0267H929.515C934.955 44.0267 938.095 47.1661 940.399 54.281L949.191 82.7407C952.54 93.413 947.306 99.2738 937.89 99.2738H937.882Z" fill="black"/>
<path d="M332.306 88.002C332.306 42.4334 361.003 11 402.99 11C444.976 11 474.518 42.4334 474.518 88.002C474.518 133.571 445.189 165.004 402.99 165.004C360.79 165.004 332.306 133.571 332.306 88.002ZM446.878 88.002C446.878 58.0436 429.785 36.9473 403.412 36.9473C377.038 36.9473 359.737 58.0436 359.737 88.002C359.737 117.96 377.251 139.057 403.412 139.057C429.572 139.057 446.878 117.96 446.878 88.002Z" fill="black"/>
<path d="M84.5754 43.8667C84.5761 43.866 84.577 43.8655 84.578 43.8653L123.187 35.9843C139.81 32.5911 154.508 46.1506 150.049 60.7651L123.136 148.955C119.322 161.453 103.362 167.513 90.5473 161.327L56.6131 144.948C47.1626 140.387 42.6479 130.542 45.8217 121.42L68.056 57.4916C70.4317 50.6613 76.7254 45.4709 84.5728 43.8681C84.5738 43.8679 84.5747 43.8674 84.5754 43.8667Z" fill="black"/>
<path d="M86.1681 149.785C86.1681 149.786 86.1676 149.786 86.167 149.786C81.8655 149.786 77.5728 148.826 73.6148 146.914L39.2395 130.325C27.9517 124.872 22.5416 112.893 26.3781 101.843L48.9049 37.0836C51.7418 28.9341 59.233 22.7018 68.4552 20.8201L107.567 12.8369C117.467 10.8178 127.618 13.965 134.067 21.055C139.635 27.1743 141.483 35.0822 139.145 42.7485L111.884 132.08C109.843 138.762 104.719 144.327 97.8238 147.342C94.0985 148.973 90.1294 149.784 86.1692 149.784C86.1686 149.784 86.1681 149.785 86.1681 149.785ZM69.9634 28.2293C69.9635 28.2293 69.9635 28.2295 69.9634 28.2295C63.3459 29.5817 58.0117 33.9256 56.0482 39.5681L33.5213 104.325C30.9637 111.685 34.7514 119.755 42.5241 123.512L76.8994 140.101C82.4358 142.776 89.1269 142.893 94.7919 140.411C99.7321 138.25 103.232 134.507 104.646 129.873L131.907 40.541C133.447 35.4878 132.197 30.2417 128.471 26.1437C123.806 21.0196 116.381 18.7611 109.074 20.2461L69.9634 28.2291C69.9632 28.2291 69.9633 28.2293 69.9634 28.2293Z" fill="black"/>
<mask id="mask0_23_176" style="mask-type:luminance" maskUnits="userSpaceOnUse" x="44" y="35" width="107" height="129">
<path d="M84.5754 43.8667C84.5761 43.866 84.577 43.8655 84.578 43.8653L123.187 35.9843C139.81 32.5911 154.508 46.1506 150.049 60.7651L123.136 148.955C119.322 161.453 103.362 167.513 90.5473 161.327L56.6131 144.948C47.1626 140.387 42.6479 130.542 45.8217 121.42L68.056 57.4916C70.4317 50.6613 76.7254 45.4709 84.5728 43.8681C84.5738 43.8679 84.5747 43.8674 84.5754 43.8667Z" fill="white"/>
</mask>
<g mask="url(#mask0_23_176)">
<path d="M86.1681 149.785C86.1681 149.786 86.1676 149.786 86.167 149.786C81.8655 149.786 77.5728 148.826 73.6148 146.914L39.2395 130.325C27.9517 124.872 22.5416 112.893 26.3781 101.843L48.9049 37.0836C51.7418 28.9341 59.233 22.7018 68.4552 20.8201L107.567 12.8369C117.467 10.8178 127.618 13.965 134.067 21.055C139.635 27.1743 141.483 35.0822 139.145 42.7485L111.884 132.08C109.843 138.762 104.719 144.327 97.8238 147.342C94.0985 148.973 90.1294 149.784 86.1692 149.784C86.1686 149.784 86.1681 149.785 86.1681 149.785ZM69.9634 28.2293C69.9635 28.2293 69.9635 28.2295 69.9634 28.2295C63.3459 29.5817 58.0117 33.9256 56.0482 39.5681L33.5213 104.325C30.9637 111.685 34.7514 119.755 42.5241 123.512L76.8994 140.101C82.4358 142.776 89.1269 142.893 94.7919 140.411C99.7321 138.25 103.232 134.507 104.646 129.873L131.907 40.541C133.447 35.4878 132.197 30.2417 128.471 26.1437C123.806 21.0196 116.381 18.7611 109.074 20.2461L69.9634 28.2291C69.9632 28.2291 69.9633 28.2293 69.9634 28.2293Z" fill="white"/>
</g>
</svg>
